<?xml version="1.0" standalone="no"?>
<!DOCTYPE svg PUBLIC "-//W3C//DTD SVG 20010904//EN"
 "http://www.w3.org/TR/2001/REC-SVG-20010904/DTD/svg10.dtd">
<svg version="1.0" xmlns="http://www.w3.org/2000/svg"
 width="362.000000pt" height="103.000000pt" viewBox="0 0 362.000000 103.000000"
 preserveAspectRatio="xMidYMid meet">

<g transform="translate(0.000000,103.000000) scale(0.100000,-0.100000)"
fill="#000000" stroke="none">
<path d="M447 843 c-4 -3 -7 -17 -7 -29 0 -27 26 -37 85 -32 41 3 62 25 52 52
-5 12 -20 16 -65 16 -32 0 -62 -3 -65 -7z m103 -23 c0 -5 -21 -10 -46 -10 -27
0 -43 4 -39 10 3 6 24 10 46 10 21 0 39 -4 39 -10z"/>
<path d="M679 779 c-50 -7 -96 -29 -145 -65 -28 -22 -40 -24 -194 -26 -142 -3
-164 -5 -174 -21 -8 -12 -8 -22 0 -35 9 -14 29 -17 113 -20 79 -2 101 -6 101
-17 0 -8 -13 -15 -31 -17 -18 -2 -37 -11 -43 -21 -16 -25 4 -51 43 -55 19 -2
31 -9 31 -18 0 -11 -15 -14 -66 -14 -72 0 -104 -12 -104 -38 0 -33 22 -42 97
-42 58 0 73 -3 73 -15 0 -12 -13 -15 -59 -15 -50 0 -62 -4 -75 -22 -11 -15
-12 -26 -5 -40 9 -16 24 -18 137 -18 126 0 129 -1 168 -29 152 -112 364 -63
452 104 37 70 38 187 3 259 -59 121 -187 186 -322 165z m-224 -171 c-36 -78
-32 -238 6 -238 7 0 9 13 4 40 l-7 40 80 0 c78 0 81 -1 115 -35 29 -29 42 -35
77 -35 35 0 48 6 77 35 34 34 37 35 114 35 90 0 93 -4 60 -76 -44 -97 -139
-156 -251 -156 -86 0 -144 25 -203 86 -50 52 -62 57 -53 21 l7 -26 -108 3
c-119 3 -143 20 -42 28 69 6 93 25 73 58 -8 13 -29 18 -84 22 -46 3 -75 10
-78 18 -3 9 16 12 71 12 81 0 101 11 95 52 -2 17 -12 25 -40 32 -41 10 -51 26
-17 26 34 0 59 19 59 45 0 35 -27 45 -129 45 -54 0 -91 4 -91 10 0 6 55 10
145 10 l144 0 -24 -52z m530 -121 c11 -2 -18 -4 -65 -4 -47 0 -68 2 -48 4 20
2 42 11 49 19 10 13 14 13 28 0 9 -8 25 -16 36 -19z m-402 -4 c-24 -2 -62 -2
-85 0 -24 2 -5 4 42 4 47 0 66 -2 43 -4z"/>
<path d="M1447 754 c-16 -5 -17 -18 -15 -142 3 -125 5 -137 22 -140 25 -5 36
14 36 66 0 40 1 42 30 42 71 0 109 100 57 148 -23 22 -94 36 -130 26z m90 -80
c6 -16 -12 -34 -34 -34 -7 0 -13 11 -13 25 0 18 5 25 20 25 11 0 23 -7 27 -16z"/>
<path d="M1702 739 c-137 -68 -87 -269 68 -269 61 0 106 29 131 85 34 76 0
159 -78 191 -45 19 -71 18 -121 -7z m126 -72 c27 -25 29 -76 5 -106 -10 -12
-35 -24 -55 -27 -92 -15 -124 120 -37 155 30 12 57 5 87 -22z"/>
<path d="M1962 752 c-9 -7 -12 -42 -10 -143 l3 -134 25 0 c22 0 25 5 28 43 2
23 6 42 10 42 4 0 19 -21 34 -45 29 -47 47 -55 68 -30 11 13 7 24 -19 66 -17
28 -31 55 -31 61 0 6 14 35 32 66 29 51 30 56 14 68 -25 18 -42 8 -68 -37 -27
-48 -38 -49 -38 -6 0 18 -5 38 -12 45 -14 14 -19 14 -36 4z"/>
<path d="M2177 745 c-14 -13 -17 -37 -17 -134 0 -78 4 -121 12 -129 17 -17
133 -16 147 2 22 26 2 46 -45 46 -40 0 -44 2 -44 25 0 22 4 25 40 25 29 0 42
5 50 19 14 27 -12 51 -56 51 -27 0 -34 4 -34 20 0 17 7 20 40 20 42 0 66 24
50 50 -14 22 -122 26 -143 5z"/>
<path d="M2372 748 c-17 -17 -17 -249 0 -266 18 -18 123 -15 138 3 20 25 4 44
-40 47 l-41 3 -2 103 c-2 79 -5 105 -17 112 -20 13 -24 12 -38 -2z"/>
<path d="M2592 740 c-74 -34 -103 -137 -57 -207 57 -87 204 -82 251 10 24 44
15 129 -17 163 -27 30 -77 54 -111 54 -13 0 -42 -9 -66 -20z m128 -78 c41 -51
15 -118 -50 -128 -49 -8 -90 24 -90 71 0 48 9 66 42 80 39 16 74 8 98 -23z"/>
<path d="M2912 748 c-8 -8 -12 -47 -12 -109 0 -101 -8 -122 -36 -95 -12 12
-20 13 -35 6 -24 -14 -24 -35 1 -60 28 -28 81 -26 108 3 20 21 22 34 22 139 0
96 -3 117 -16 122 -20 8 -18 8 -32 -6z"/>
<path d="M3083 754 c-16 -7 -106 -238 -101 -261 5 -29 43 -28 56 2 10 22 18
25 62 25 44 0 52 -3 62 -25 13 -30 51 -31 56 -2 4 21 -74 224 -96 250 -16 18
-19 19 -39 11z m37 -166 c0 -4 -9 -8 -20 -8 -21 0 -24 8 -13 36 6 16 7 16 20
-2 7 -10 13 -21 13 -26z"/>
<path d="M176 564 c-32 -31 -11 -64 39 -64 35 0 55 15 55 42 0 35 -66 51 -94
22z m64 -24 c0 -5 -11 -10 -25 -10 -14 0 -25 5 -25 10 0 6 11 10 25 10 14 0
25 -4 25 -10z"/>
<path d="M1311 331 c-45 -45 -10 -135 44 -115 24 10 17 20 -12 19 -26 0 -28 2
-28 45 0 43 1 45 28 45 15 -1 26 4 24 10 -7 19 -35 17 -56 -4z"/>
<path d="M2700 286 c0 -36 3 -66 7 -66 3 0 14 7 23 15 15 14 18 14 30 0 7 -8
17 -15 23 -15 5 0 2 9 -8 20 -17 19 -17 21 0 40 27 30 6 24 -27 -7 l-28 -27 0
47 c0 25 -4 49 -10 52 -6 4 -10 -18 -10 -59z"/>
<path d="M1630 286 c0 -55 17 -85 41 -70 9 5 6 10 -9 15 -26 10 -29 44 -6 57
15 8 15 11 -5 31 l-21 21 0 -54z"/>
<path d="M3340 295 c0 -25 5 -45 10 -45 6 0 10 20 10 45 0 25 -4 45 -10 45 -5
0 -10 -20 -10 -45z"/>
<path d="M1405 286 c-27 -41 5 -79 58 -69 21 4 27 11 27 33 0 29 -27 60 -53
60 -9 0 -23 -11 -32 -24z m60 -26 c0 -18 -6 -26 -23 -28 -24 -4 -38 18 -28 44
3 9 15 14 28 12 17 -2 23 -10 23 -28z"/>
<path d="M1528 303 c-15 -4 -18 -16 -18 -69 0 -36 4 -64 10 -64 6 0 10 12 10
26 0 20 4 25 16 20 22 -9 64 20 64 43 0 36 -37 56 -82 44z m57 -43 c0 -18 -6
-26 -23 -28 -13 -2 -25 3 -28 12 -10 26 4 48 28 44 17 -2 23 -10 23 -28z"/>
<path d="M1778 273 c-3 -33 -6 -38 -28 -38 -20 0 -28 8 -37 35 l-12 35 0 -31
c-1 -41 28 -67 63 -58 23 5 26 11 26 50 0 54 -8 58 -12 7z"/>
<path d="M1838 303 c-14 -3 -18 -14 -17 -46 1 -28 3 -33 6 -17 3 14 14 35 26
48 20 22 18 24 -15 15z"/>
<path d="M1895 286 c-8 -13 -13 -31 -9 -40 8 -22 39 -37 58 -30 25 9 19 22 -8
17 -13 -3 -27 0 -30 6 -5 7 5 11 28 11 43 0 54 15 30 41 -23 26 -50 24 -69 -5z
m60 -6 c4 -6 -7 -10 -25 -10 -18 0 -29 4 -25 10 3 6 15 10 25 10 10 0 22 -4
25 -10z"/>
<path d="M2077 303 c-18 -17 -6 -44 23 -49 17 -4 30 -10 30 -15 0 -5 -13 -9
-30 -9 -16 0 -30 -4 -30 -10 0 -16 56 -12 70 5 16 19 -3 45 -31 45 -11 0 -19
5 -19 10 0 6 9 10 20 10 11 0 20 5 20 10 0 11 -43 14 -53 3z"/>
<path d="M2180 290 c-11 -11 -20 -24 -20 -30 0 -15 38 -50 54 -50 7 0 19 7 26
15 11 13 8 14 -18 9 -17 -4 -32 -1 -36 5 -5 7 6 11 33 11 45 0 53 16 23 43
-24 22 -38 21 -62 -3z m55 -10 c4 -6 -7 -10 -25 -10 -18 0 -29 4 -25 10 3 6
15 10 25 10 10 0 22 -4 25 -10z"/>
<path d="M2488 303 c-10 -2 -18 -10 -19 -16 0 -7 -2 -33 -4 -59 -2 -26 0 -50
5 -53 6 -4 10 6 10 20 0 22 4 25 20 20 50 -16 87 60 41 85 -20 10 -25 11 -53
3z m56 -28 c9 -24 -4 -45 -29 -45 -29 0 -38 13 -30 40 8 24 50 27 59 5z"/>
<path d="M2597 292 c-24 -26 -21 -49 8 -68 23 -15 27 -15 50 0 31 20 32 50 3
70 -29 21 -41 20 -61 -2z m58 -32 c0 -18 -6 -26 -23 -28 -24 -4 -38 18 -28 44
3 9 15 14 28 12 17 -2 23 -10 23 -28z"/>
<path d="M2825 286 c-13 -19 -14 -29 -6 -45 12 -22 45 -36 61 -26 19 11 10 22
-14 18 -13 -3 -27 0 -30 6 -5 7 7 11 33 11 45 0 53 16 23 43 -26 24 -49 21
-67 -7z m60 -6 c4 -6 -7 -10 -25 -10 -18 0 -29 4 -25 10 3 6 15 10 25 10 10 0
22 -4 25 -10z"/>
<path d="M2948 303 c-14 -3 -18 -14 -17 -46 l2 -42 6 35 c5 29 10 35 31 35 21
0 26 -6 31 -35 5 -27 7 -29 8 -10 3 61 52 69 62 10 l6 -35 2 36 c1 47 -20 67
-54 51 -15 -7 -26 -8 -30 -2 -6 10 -17 11 -47 3z"/>
<path d="M3128 299 c-26 -15 -23 -65 3 -80 34 -18 69 3 69 40 0 42 -36 62 -72
40z m56 -24 c9 -24 -4 -45 -29 -45 -25 0 -38 21 -29 45 4 8 16 15 29 15 13 0
25 -7 29 -15z"/>
<path d="M3243 303 c-19 -4 -23 -11 -23 -44 0 -21 5 -39 10 -39 6 0 10 14 10
30 0 56 59 51 71 -6 l7 -29 1 31 c1 30 -25 66 -45 63 -5 -1 -19 -4 -31 -6z"/>
<path d="M2281 268 c-1 -44 21 -61 68 -52 28 6 31 10 31 45 0 22 -4 39 -10 39
-5 0 -10 -14 -10 -30 0 -56 -59 -51 -71 6 -6 27 -7 27 -8 -8z"/>
<path d="M224 166 c-15 -12 -17 -18 -8 -33 16 -26 181 -27 197 -1 8 12 7 21
-2 32 -18 22 -158 23 -187 2z m134 -23 c-21 -2 -55 -2 -75 0 -21 2 -4 4 37 4
41 0 58 -2 38 -4z"/>
<path d="M584 126 c-15 -12 -17 -18 -8 -33 17 -27 181 -27 198 0 9 15 7 21 -8
33 -27 19 -155 19 -182 0z m134 -23 c-21 -2 -57 -2 -80 0 -24 2 -7 4 37 4 44
0 63 -2 43 -4z"/>
</g>
</svg>
